<svg xmlns:xlink="http://www.w3.org/1999/xlink" width="574.371" xmlns="http://www.w3.org/2000/svg" height="574.371" id="screenshot-d1ff2071-ebe3-80fc-8002-2401e83c0788" viewBox="0 0 574.371 574.371" style="-webkit-print-color-adjust: exact;" fill="none" version="1.1"><g id="shape-d1ff2071-ebe3-80fc-8002-2401e83c0788" rx="0" ry="0"><g id="shape-d1ff2071-ebe3-80fc-8002-2401dc7912fc"><g class="fills" id="fills-d1ff2071-ebe3-80fc-8002-2401dc7912fc"><ellipse rx="239.5" ry="239.5" cx="287.5" cy="287.5" transform="matrix(1.000000, 0.000000, 0.000000, 1.000000, 0.000000, 0.000000)" style="fill: rgb(255, 255, 255); fill-opacity: 1;"/></g><g id="strokes-d1ff2071-ebe3-80fc-8002-2401dc7912fc" class="strokes"><g class="stroke-shape"><ellipse rx="239.5" ry="239.5" cx="287.5" cy="287.5" transform="matrix(1.000000, 0.000000, 0.000000, 1.000000, 0.000000, 0.000000)" style="fill: none; stroke-width: 8; stroke: rgb(0, 0, 0); stroke-opacity: 1;"/></g></g></g><g id="shape-d1ff2071-ebe3-80fc-8002-2401dc7912f7"><g class="fills" id="fills-d1ff2071-ebe3-80fc-8002-2401dc7912f7"><path rx="0" ry="0" d="M288.000,288.999L288.000,288.999ZL288.000,50.000C353.893,50.135,413.576,76.938,456.818,120.180L288.000,288.999ZM288.001,288.999L288.001,288.999Z" style="fill: rgb(236, 168, 106); fill-opacity: 1;"/></g></g><g id="shape-d1ff2071-ebe3-80fc-8002-2401dc7912fe"><g class="fills" id="fills-d1ff2071-ebe3-80fc-8002-2401dc7912fe"><path rx="0" ry="0" d="M287.999,288.818L287.999,288.818ZL49.000,288.818C49.135,222.925,75.938,163.243,119.180,120.000L287.999,288.818ZM287.999,288.817L287.999,288.817Z" style="fill: rgb(236, 168, 106); fill-opacity: 1;"/></g></g><g id="shape-d1ff2071-ebe3-80fc-8002-2401dc791303"><g class="fills" id="fills-d1ff2071-ebe3-80fc-8002-2401dc791303"><path rx="0" ry="0" d="M286.000,289.000L286.000,289.000ZM286.001,289.000L524.999,289.000C524.865,354.893,498.062,414.576,454.820,457.818L286.001,289.000ZM286.000,289.001L286.000,289.001Z" style="fill: rgb(236, 168, 106); fill-opacity: 1;"/></g></g><g id="shape-d1ff2071-ebe3-80fc-8002-2401dc791300"><g class="fills" id="fills-d1ff2071-ebe3-80fc-8002-2401dc791300"><path rx="0" ry="0" d="M288.372,286.000L288.372,286.000ZM288.373,286.001L457.371,454.998C410.682,501.496,349.528,524.746,288.373,524.746L288.373,286.001ZM288.372,286.001L288.372,286.001Z" style="fill: rgb(255, 255, 255); fill-opacity: 1;"/></g></g><g id="shape-d1ff2071-ebe3-80fc-8002-2401dc7912f8"><g class="fills" id="fills-d1ff2071-ebe3-80fc-8002-2401dc7912f8"><path rx="0" ry="0" d="M287.998,288.371L287.998,288.371ZM287.997,288.370L119.000,119.372C165.689,72.874,226.843,49.625,287.997,49.625L287.997,288.370ZM287.999,288.370L287.999,288.370Z" style="fill: rgb(58, 152, 185); fill-opacity: 1;"/></g></g><g id="shape-d1ff2071-ebe3-80fc-8002-2401dc7912ff"><g class="fills" id="fills-d1ff2071-ebe3-80fc-8002-2401dc7912ff"><path rx="0" ry="0" d="M288.371,286.372L288.371,286.372ZM288.370,286.373L119.372,455.371C72.874,408.682,49.625,347.528,49.625,286.373L288.370,286.373ZM288.370,286.372L288.370,286.372Z" style="opacity: 1; fill: rgb(255, 255, 255); fill-opacity: 1;"/></g></g><g id="shape-d1ff2071-ebe3-80fc-8002-2401dc791301"><g class="fills" id="fills-d1ff2071-ebe3-80fc-8002-2401dc791301"><path rx="0" ry="0" d="M288.818,286.000L288.818,286.000ZL288.818,524.999C222.925,524.865,163.243,498.062,120.000,454.820L288.818,286.000ZM288.817,286.000L288.817,286.000Z" style="fill: rgb(58, 152, 185); fill-opacity: 1;"/></g></g><g id="shape-d1ff2071-ebe3-80fc-8002-2401dc7912f9"><g class="fills" id="fills-d1ff2071-ebe3-80fc-8002-2401dc7912f9"><path rx="0" ry="0" d="M286.000,286.998L286.000,286.998ZM286.001,286.997L454.998,118.000C501.496,164.689,524.746,225.843,524.746,286.997L286.001,286.997ZM286.001,286.999L286.001,286.999Z" style="fill: rgb(255, 255, 255); fill-opacity: 1;"/></g></g><g id="shape-d1ff2071-ebe3-80fc-8002-2401dc7912fa"><g class="fills" id="fills-d1ff2071-ebe3-80fc-8002-2401dc7912fa"><rect rx="0" ry="0" x="285.7662876565512" y="47.2662876565513" transform="matrix(-0.707107, 0.707107, -0.707107, -0.707107, 695.022168, 283.644967)" width="6.000000000000227" height="476.9999999999999" style="fill: rgb(0, 0, 0); fill-opacity: 1;"/></g></g><g id="shape-d1ff2071-ebe3-80fc-8002-2401dc7912fb"><g class="fills" id="fills-d1ff2071-ebe3-80fc-8002-2401dc7912fb"><rect rx="0" ry="0" x="284.05918087536463" y="49.55918087536472" transform="matrix(0.707107, 0.707107, -0.707107, 0.707107, 287.059181, -118.903806)" width="6" height="474.9999999999999" style="fill: rgb(0, 0, 0); fill-opacity: 1;"/></g></g><g id="shape-d1ff2071-ebe3-80fc-8002-2401dc791302"><g class="fills" id="fills-d1ff2071-ebe3-80fc-8002-2401dc791302"><rect rx="0" ry="0" x="284.5" y="49.5" transform="matrix(0.000000, 1.000000, -1.000000, 0.000000, 574.500000, -0.500000)" width="6" height="475" style="opacity: 0.9; fill: rgb(0, 0, 0); fill-opacity: 1;"/></g></g><g id="shape-d1ff2071-ebe3-80fc-8002-2401dc7912fd"><g class="fills" id="fills-d1ff2071-ebe3-80fc-8002-2401dc7912fd"><rect rx="0" ry="0" x="284" y="50" transform="matrix(1.000000, 0.000000, 0.000000, 1.000000, 0.000000, 0.000000)" width="6" height="475" style="fill: rgb(0, 0, 0); fill-opacity: 1;"/></g></g></g></svg>